<?xml version="1.0" encoding="utf-8"?>
<!-- Generator: Adobe Illustrator 18.0.0, SVG Export Plug-In . SVG Version: 6.00 Build 0)  -->
<!DOCTYPE svg PUBLIC "-//W3C//DTD SVG 1.1//EN" "http://www.w3.org/Graphics/SVG/1.1/DTD/svg11.dtd">
<svg version="1.1" id="Layer_1" xmlns="http://www.w3.org/2000/svg" xmlns:xlink="http://www.w3.org/1999/xlink" x="0px" y="0px"
	 viewBox="0 0 54 54" enable-background="new 0 0 54 54" xml:space="preserve">
<g>
	
		<rect x="20.7" y="20.6" transform="matrix(0.7071 0.7071 -0.7071 0.7071 27.0189 -11.1937)" fill="#64C6C0" width="12.7" height="12.7"/>
	
		<rect x="38.7" y="20.6" transform="matrix(0.7071 0.7071 -0.7071 0.7071 32.2954 -23.9328)" fill="#47B7E9" width="12.7" height="12.7"/>
	<rect x="2.6" y="20.6" transform="matrix(0.7072 0.707 -0.707 0.7072 21.74 1.5425)" fill="#F79146" width="12.7" height="12.7"/>
	
		<rect x="20.7" y="2.6" transform="matrix(0.7071 0.7071 -0.7071 0.7071 14.2825 -16.4693)" fill="#B1D349" width="12.7" height="12.7"/>
	
		<rect x="38.7" y="2.6" transform="matrix(0.7071 0.7071 -0.7071 0.7071 19.5589 -29.2081)" fill="#7FC56E" width="12.7" height="12.7"/>
	<rect x="2.6" y="2.6" transform="matrix(0.7072 0.707 -0.707 0.7072 9.005 -3.7317)" fill="#FEDC00" width="12.7" height="12.7"/>
	
		<rect x="20.7" y="38.7" transform="matrix(0.7071 0.7071 -0.7071 0.7071 39.7552 -5.9182)" fill="#975BA5" width="12.7" height="12.7"/>
	
		<rect x="38.7" y="38.7" transform="matrix(0.7071 0.7071 -0.7071 0.7071 45.0316 -18.6572)" fill="#435CAA" width="12.7" height="12.7"/>
	
		<rect x="2.6" y="38.7" transform="matrix(0.7072 0.707 -0.707 0.7072 34.4749 6.8166)" fill="#ED2986" width="12.7" height="12.7"/>
</g>
</svg>
